<mxfile host="Electron" modified="2023-10-27T11:06:59.060Z" agent="Mozilla/5.0 (Macintosh; Intel Mac OS X 10_15_7) AppleWebKit/537.36 (KHTML, like Gecko) draw.io/21.2.8 Chrome/112.0.5615.165 Electron/24.2.0 Safari/537.36" etag="XBIUH0vo3HgU0Zk5xguV" version="21.2.8" type="device">
  <diagram name="第 1 页" id="p64spe06GVbjPgFpFUj5">
    <mxGraphModel dx="977" dy="743" grid="1" gridSize="10" guides="1" tooltips="1" connect="1" arrows="1" fold="1" page="1" pageScale="1" pageWidth="827" pageHeight="1169" math="0" shadow="0">
      <root>
        <mxCell id="0" />
        <mxCell id="1" parent="0" />
        <mxCell id="nbx796DIyqRFJzzPWpJO-12" value="" style="whiteSpace=wrap;html=1;fillColor=none;dashed=1;" parent="1" vertex="1">
          <mxGeometry x="120" y="100" width="300" height="510" as="geometry" />
        </mxCell>
        <mxCell id="nbx796DIyqRFJzzPWpJO-6" value="" style="edgeStyle=orthogonalEdgeStyle;rounded=0;orthogonalLoop=1;jettySize=auto;html=1;entryX=-0.017;entryY=0.503;entryDx=0;entryDy=0;entryPerimeter=0;dashed=1;strokeWidth=3;" parent="1" source="nbx796DIyqRFJzzPWpJO-1" target="nbx796DIyqRFJzzPWpJO-4" edge="1">
          <mxGeometry relative="1" as="geometry">
            <mxPoint x="432.2549999999999" y="435" as="targetPoint" />
            <Array as="points" />
          </mxGeometry>
        </mxCell>
        <mxCell id="nbx796DIyqRFJzzPWpJO-8" value="" style="edgeStyle=orthogonalEdgeStyle;rounded=0;orthogonalLoop=1;jettySize=auto;html=1;entryX=-0.03;entryY=0.462;entryDx=0;entryDy=0;entryPerimeter=0;strokeWidth=3;" parent="1" source="nbx796DIyqRFJzzPWpJO-1" target="nbx796DIyqRFJzzPWpJO-2" edge="1">
          <mxGeometry relative="1" as="geometry">
            <mxPoint x="224.08500000000004" y="225" as="targetPoint" />
            <Array as="points">
              <mxPoint x="230" y="235" />
            </Array>
          </mxGeometry>
        </mxCell>
        <mxCell id="nbx796DIyqRFJzzPWpJO-1" value="" style="image;points=[];aspect=fixed;html=1;align=center;shadow=0;dashed=0;image=img/lib/allied_telesis/computer_and_terminals/Laptop.svg;" parent="1" vertex="1">
          <mxGeometry x="160" y="370" width="128.17" height="130" as="geometry" />
        </mxCell>
        <mxCell id="nbx796DIyqRFJzzPWpJO-10" value="" style="edgeStyle=orthogonalEdgeStyle;rounded=0;orthogonalLoop=1;jettySize=auto;html=1;strokeWidth=3;" parent="1" source="nbx796DIyqRFJzzPWpJO-2" target="nbx796DIyqRFJzzPWpJO-4" edge="1">
          <mxGeometry relative="1" as="geometry">
            <mxPoint x="582.0050000000001" y="240" as="targetPoint" />
          </mxGeometry>
        </mxCell>
        <mxCell id="nbx796DIyqRFJzzPWpJO-2" value="" style="image;points=[];aspect=fixed;html=1;align=center;shadow=0;dashed=0;image=img/lib/allied_telesis/computer_and_terminals/Server_Desktop.svg;" parent="1" vertex="1">
          <mxGeometry x="360" y="180" width="94.67" height="120" as="geometry" />
        </mxCell>
        <mxCell id="nbx796DIyqRFJzzPWpJO-4" value="" style="image;points=[];aspect=fixed;html=1;align=center;shadow=0;dashed=0;image=img/lib/allied_telesis/computer_and_terminals/Server_Desktop.svg;" parent="1" vertex="1">
          <mxGeometry x="530" y="375" width="94.67" height="120" as="geometry" />
        </mxCell>
        <mxCell id="nbx796DIyqRFJzzPWpJO-11" value="www.google.com" style="text;html=1;align=center;verticalAlign=middle;resizable=0;points=[];autosize=1;strokeColor=none;fillColor=none;fontSize=22;" parent="1" vertex="1">
          <mxGeometry x="482.34000000000003" y="500" width="190" height="40" as="geometry" />
        </mxCell>
        <mxCell id="nbx796DIyqRFJzzPWpJO-15" value="" style="endArrow=none;dashed=1;html=1;rounded=0;" parent="1" edge="1">
          <mxGeometry width="50" height="50" relative="1" as="geometry">
            <mxPoint x="420" y="100" as="sourcePoint" />
            <mxPoint x="690" y="100" as="targetPoint" />
          </mxGeometry>
        </mxCell>
        <mxCell id="nbx796DIyqRFJzzPWpJO-16" value="" style="endArrow=none;dashed=1;html=1;rounded=0;" parent="1" edge="1">
          <mxGeometry width="50" height="50" relative="1" as="geometry">
            <mxPoint x="690" y="100" as="sourcePoint" />
            <mxPoint x="690" y="610" as="targetPoint" />
          </mxGeometry>
        </mxCell>
        <mxCell id="nbx796DIyqRFJzzPWpJO-17" value="" style="endArrow=none;dashed=1;html=1;rounded=0;" parent="1" edge="1">
          <mxGeometry width="50" height="50" relative="1" as="geometry">
            <mxPoint x="420" y="610" as="sourcePoint" />
            <mxPoint x="690" y="610" as="targetPoint" />
          </mxGeometry>
        </mxCell>
        <mxCell id="nbx796DIyqRFJzzPWpJO-18" value="国内" style="text;html=1;strokeColor=none;fillColor=none;align=center;verticalAlign=middle;whiteSpace=wrap;rounded=0;fontSize=22;" parent="1" vertex="1">
          <mxGeometry x="140" y="120" width="60" height="30" as="geometry" />
        </mxCell>
        <mxCell id="nbx796DIyqRFJzzPWpJO-19" value="国外" style="text;html=1;strokeColor=none;fillColor=none;align=center;verticalAlign=middle;whiteSpace=wrap;rounded=0;fontSize=22;" parent="1" vertex="1">
          <mxGeometry x="454.67" y="120" width="60" height="30" as="geometry" />
        </mxCell>
        <mxCell id="ChSfZHQXzef1KFA7BvHz-2" value="" style="endArrow=none;html=1;rounded=0;strokeWidth=3;" edge="1" parent="1">
          <mxGeometry width="50" height="50" relative="1" as="geometry">
            <mxPoint x="610" y="370" as="sourcePoint" />
            <mxPoint x="610" y="210" as="targetPoint" />
          </mxGeometry>
        </mxCell>
        <mxCell id="ChSfZHQXzef1KFA7BvHz-3" value="" style="endArrow=classic;html=1;rounded=0;strokeWidth=3;" edge="1" parent="1">
          <mxGeometry width="50" height="50" relative="1" as="geometry">
            <mxPoint x="610" y="210" as="sourcePoint" />
            <mxPoint x="470" y="210" as="targetPoint" />
          </mxGeometry>
        </mxCell>
        <mxCell id="ChSfZHQXzef1KFA7BvHz-4" value="" style="endArrow=none;html=1;rounded=0;strokeWidth=3;" edge="1" parent="1">
          <mxGeometry width="50" height="50" relative="1" as="geometry">
            <mxPoint x="340" y="210" as="sourcePoint" />
            <mxPoint x="210" y="210" as="targetPoint" />
          </mxGeometry>
        </mxCell>
        <mxCell id="ChSfZHQXzef1KFA7BvHz-5" value="" style="endArrow=classic;html=1;rounded=0;strokeWidth=3;" edge="1" parent="1">
          <mxGeometry width="50" height="50" relative="1" as="geometry">
            <mxPoint x="210" y="210" as="sourcePoint" />
            <mxPoint x="210" y="360" as="targetPoint" />
          </mxGeometry>
        </mxCell>
      </root>
    </mxGraphModel>
  </diagram>
</mxfile>
